Jump_normalized_pl12_filtered_grf
version=1
nRows=25
nColumns=37
inDegrees=yes
endheader
time		1_ground_force_vx		1_ground_force_vy		1_ground_force_vz		1_ground_force_px		1_ground_force_py		1_ground_force_pz		1_ground_torque_x		1_ground_torque_y		1_ground_torque_z		2_ground_force_vx		2_ground_force_vy		2_ground_force_vz		2_ground_force_px		2_ground_force_py		2_ground_force_pz		2_ground_torque_x		2_ground_torque_y		2_ground_torque_z		3_ground_force_vx		3_ground_force_vy		3_ground_force_vz		3_ground_force_px		3_ground_force_py		3_ground_force_pz		3_ground_torque_x		3_ground_torque_y		3_ground_torque_z		4_ground_force_vx		4_ground_force_vy		4_ground_force_vz		4_ground_force_px		4_ground_force_py		4_ground_force_pz		4_ground_torque_x		4_ground_torque_y		4_ground_torque_z		
0.004500		-0.000000		0.000000		0.000000		0.089498		0.000000		0.244568		0.000000		0.000000		-0.000000		-0.000000		0.000000		0.000000		-0.155022		0.000000		0.264107		0.000000		-0.000000		0.000000		16.235103		255.226929		325.169526		0.374320		1.309171		1.917536		-0.865721		-13.609731		-17.339353		-15.766252		507.316747		441.274287		-0.265913		1.308900		1.928840		-0.637463		20.511894		17.841657		
0.005914		-0.000000		0.000000		0.000000		0.089498		0.000000		0.244568		0.000000		0.000000		-0.000000		-0.000000		0.000000		0.000000		-0.155022		0.000000		0.264107		0.000000		-0.000000		0.000000		17.219928		252.521985		325.731211		0.374327		1.309194		1.917573		-0.921965		-13.520103		-17.439763		-15.570871		503.788269		442.620525		-0.265895		1.308907		1.928872		-0.631370		20.427681		17.947451		
0.007328		0.000000		-0.000000		-0.000000		0.089498		0.000000		0.244568		-0.000000		-0.000000		0.000000		-0.000000		0.000000		0.000000		-0.155022		0.000000		0.264107		0.000000		-0.000000		0.000000		18.145958		249.696011		326.236788		0.374332		1.309215		1.917610		-0.975633		-13.425019		-17.540295		-15.394044		500.173009		443.995226		-0.265878		1.308915		1.928905		-0.625939		20.337601		18.053364		
0.008742		0.000000		-0.000000		-0.000000		0.089498		0.000000		0.244568		-0.000000		-0.000000		0.000000		-0.000000		-0.000000		0.000000		-0.155022		0.000000		0.264107		-0.000000		-0.000000		-0.000000		18.990380		246.760526		326.670379		0.374338		1.309237		1.917647		-1.025451		-13.324584		-17.639590		-15.242338		496.495354		445.388055		-0.265862		1.308923		1.928939		-0.621424		20.241924		18.158315		
0.010157		0.000000		-0.000000		-0.000000		0.089498		0.000000		0.244568		-0.000000		-0.000000		0.000000		-0.000000		-0.000000		-0.000000		-0.155022		0.000000		0.264107		-0.000000		0.000000		-0.000000		19.758633		243.735719		327.008390		0.374343		1.309258		1.917684		-1.071643		-13.219351		-17.735790		-15.104043		492.784384		446.778306		-0.265845		1.308931		1.928974		-0.617345		20.141492		18.261106		
0.011571		0.000000		-0.000000		-0.000000		0.089498		0.000000		0.244568		-0.000000		-0.000000		0.000000		-0.000000		-0.000000		-0.000000		-0.155022		0.000000		0.264107		-0.000000		0.000000		-0.000000		20.433184		240.628797		327.239129		0.374347		1.309277		1.917721		-1.113177		-13.109143		-17.827577		-14.986035		489.049590		448.160696		-0.265831		1.308938		1.929011		-0.613988		20.036714		18.361474		
0.012985		0.000000		-0.000000		-0.000000		0.089498		0.000000		0.244568		-0.000000		-0.000000		0.000000		-0.000000		-0.000000		-0.000000		-0.155022		0.000000		0.264107		-0.000000		0.000000		-0.000000		21.027619		237.457491		327.341516		0.374352		1.309295		1.917757		-1.150689		-12.994315		-17.913016		-14.876103		485.306477		449.518383		-0.265818		1.308947		1.929048		-0.610870		19.928555		18.458960		
0.014399		0.000000		-0.000000		-0.000000		0.089498		0.000000		0.244568		-0.000000		-0.000000		0.000000		-0.000000		-0.000000		-0.000000		-0.155022		0.000000		0.264107		-0.000000		0.000000		-0.000000		21.538837		234.229755		327.302065		0.374356		1.309309		1.917791		-1.183905		-12.874637		-17.990457		-14.776405		481.555121		450.845542		-0.265807		1.308954		1.929086		-0.608098		19.817597		18.553804		
0.015813		0.000000		-0.000000		-0.000000		0.089498		0.000000		0.244568		-0.000000		-0.000000		0.000000		-0.000000		-0.000000		-0.000000		-0.155022		0.000000		0.264107		-0.000000		0.000000		-0.000000		21.979049		230.959000		327.109798		0.374359		1.309319		1.917824		-1.213371		-12.750225		-18.058315		-14.682405		477.795446		452.133905		-0.265795		1.308962		1.929126		-0.605514		19.704666		18.646376		
0.017227		0.000000		-0.000000		-0.000000		0.089498		0.000000		0.244568		-0.000000		-0.000000		0.000000		0.000000		-0.000000		-0.000000		-0.155022		0.000000		0.264107		-0.000000		0.000000		-0.000000		22.359843		227.656377		326.753848		0.374361		1.309326		1.917855		-1.239615		-12.621074		-18.114983		-14.593286		474.021280		453.378246		-0.265786		1.308970		1.929164		-0.603112		19.590378		18.737255		
0.018641		0.000000		-0.000000		-0.000000		0.089498		0.000000		0.244568		-0.000000		-0.000000		0.000000		0.000000		-0.000000		-0.000000		-0.155022		0.000000		0.264107		-0.000000		0.000000		-0.000000		22.686900		224.330418		326.227115		0.374363		1.309327		1.917883		-1.262842		-12.487076		-18.159054		-14.510269		470.223501		454.574706		-0.265777		1.308979		1.929204		-0.600972		19.475260		18.827145		
0.020056		0.000000		-0.000000		-0.000000		0.089498		0.000000		0.244568		-0.000000		-0.000000		0.000000		0.000000		-0.000000		-0.000000		-0.155022		0.000000		0.264107		-0.000000		0.000000		-0.000000		22.977974		220.993245		325.520541		0.374365		1.309325		1.917910		-1.283937		-12.348392		-18.189050		-14.434091		466.391323		455.720752		-0.265769		1.308986		1.929243		-0.599154		19.359747		18.916821		
0.021470		0.000000		-0.000000		-0.000000		0.089498		0.000000		0.244568		-0.000000		-0.000000		0.000000		0.000000		-0.000000		-0.000000		-0.155022		0.000000		0.264107		-0.000000		0.000000		-0.000000		23.234132		217.652519		324.628941		0.374367		1.309315		1.917933		-1.302868		-12.204986		-18.203754		-14.366760		462.513756		456.814072		-0.265761		1.308995		1.929281		-0.597771		19.244230		19.007081		
0.022884		-0.000000		0.000000		0.000000		0.089498		0.000000		0.244568		0.000000		0.000000		-0.000000		0.000000		-0.000000		-0.000000		-0.155022		0.000000		0.264107		-0.000000		0.000000		-0.000000		23.470569		214.318504		323.545351		0.374369		1.309302		1.917953		-1.320405		-12.057089		-18.201967		-14.313129		458.577376		457.856836		-0.265754		1.309003		1.929319		-0.597052		19.128922		19.098878		
0.024298		-0.000000		0.000000		0.000000		0.089498		0.000000		0.244568		0.000000		0.000000		-0.000000		0.000000		-0.000000		-0.000000		-0.155022		0.000000		0.264107		-0.000000		0.000000		-0.000000		23.688952		210.998924		322.269482		0.374371		1.309284		1.917972		-1.336585		-11.905020		-18.183165		-14.274933		454.574547		458.851361		-0.265746		1.309013		1.929354		-0.597097		19.014097		19.193007		
0.025712		-0.000000		0.000000		0.000000		0.089498		0.000000		0.244568		0.000000		0.000000		-0.000000		0.000000		0.000000		-0.000000		-0.155022		0.000000		0.264107		0.000000		-0.000000		0.000000		23.895051		207.701211		320.798165		0.374373		1.309264		1.917989		-1.351687		-11.749150		-18.146784		-14.256604		450.497125		459.803415		-0.265739		1.309022		1.929389		-0.598114		18.899893		19.290343		
0.027126		-0.000000		0.000000		0.000000		0.089498		0.000000		0.244568		0.000000		0.000000		-0.000000		0.000000		0.000000		0.000000		-0.155022		0.000000		0.264107		0.000000		-0.000000		0.000000		24.090698		204.430800		319.129326		0.374378		1.309241		1.918004		-1.365784		-11.589864		-18.092516		-14.262020		446.340412		460.720231		-0.265730		1.309031		1.929421		-0.600288		18.786445		19.391709		
0.028540		-0.000000		0.000000		0.000000		0.089498		0.000000		0.244568		0.000000		0.000000		-0.000000		0.000000		0.000000		0.000000		-0.155022		0.000000		0.264107		0.000000		-0.000000		0.000000		24.273703		201.195160		317.259171		0.374383		1.309216		1.918018		-1.378734		-11.427778		-18.020155		-14.291356		442.105178		461.608804		-0.265721		1.309041		1.929451		-0.603649		18.673962		19.497778		
0.029955		-0.000000		0.000000		0.000000		0.089498		0.000000		0.244568		0.000000		0.000000		-0.000000		0.000000		0.000000		0.000000		-0.155022		0.000000		0.264107		0.000000		-0.000000		0.000000		24.446610		197.995292		315.184679		0.374389		1.309191		1.918033		-1.390675		-11.263199		-17.929659		-14.352091		437.789901		462.481795		-0.265711		1.309052		1.929480		-0.608534		18.562445		19.609399		
0.031369		-0.000000		0.000000		0.000000		0.089498		0.000000		0.244568		0.000000		0.000000		-0.000000		0.000000		0.000000		0.000000		-0.155022		0.000000		0.264107		0.000000		-0.000000		0.000000		24.600026		194.840384		312.899815		0.374398		1.309167		1.918048		-1.401085		-11.097053		-17.821083		-14.438813		433.405844		463.345367		-0.265700		1.309063		1.929505		-0.614732		18.452224		19.726921		
0.032783		-0.000000		0.000000		0.000000		0.089498		0.000000		0.244568		0.000000		0.000000		-0.000000		-0.000000		0.000000		0.000000		-0.155022		0.000000		0.264107		0.000000		-0.000000		0.000000		24.737362		191.725981		310.406701		0.374407		1.309145		1.918063		-1.410187		-10.929593		-17.695147		-14.559450		428.957614		464.214320		-0.265688		1.309074		1.929529		-0.622596		18.343177		19.850866		
0.034197		-0.000000		0.000000		0.000000		0.089498		0.000000		0.244568		0.000000		0.000000		-0.000000		-0.000000		0.000000		0.000000		-0.155022		0.000000		0.264107		0.000000		-0.000000		0.000000		24.849477		188.657887		307.699237		0.374419		1.309126		1.918080		-1.417495		-10.761657		-17.552163		-14.708799		424.460426		465.093982		-0.265674		1.309087		1.929549		-0.631918		18.235570		19.981295		
0.035611		-0.000000		0.000000		0.000000		0.089498		0.000000		0.244568		0.000000		0.000000		-0.000000		-0.000000		0.000000		0.000000		-0.155022		0.000000		0.264107		0.000000		-0.000000		0.000000		24.936602		185.632352		304.775666		0.374430		1.309110		1.918098		-1.423069		-10.593568		-17.392776		-14.889914		419.923985		465.994074		-0.265660		1.309098		1.929566		-0.642843		18.129343		20.118352		
0.037025		-0.000000		0.000000		0.000000		0.089498		0.000000		0.244568		0.000000		0.000000		-0.000000		-0.000000		0.000000		0.000000		-0.155022		0.000000		0.264107		0.000000		-0.000000		0.000000		24.994639		182.648957		301.631850		0.374443		1.309097		1.918117		-1.426727		-10.425849		-17.217553		-15.100411		415.361906		466.919013		-0.265644		1.309110		1.929579		-0.655279		18.024548		20.261866		
0.038439		0.000000		0.000000		0.000000		0.089498		0.000000		0.244568		0.000000		0.000000		-0.000000		-0.000000		0.000000		0.000000		-0.155022		0.000000		0.264107		0.000000		-0.000000		0.000000		25.021481		179.705046		298.261293		0.374457		1.309089		1.918139		-1.428408		-10.258871		-17.026923		-15.337307		410.787393		467.871050		-0.265627		1.309123		1.929590		-0.669113		17.921201		20.411579		
